<?xml version="1.0" encoding="UTF-8"?>
<svg xmlns="http://www.w3.org/2000/svg" version="1.1" viewBox="0 0 40 40">
  <defs>
    <style>
      .cls-1 {
        fill: #92fffc;
      }

      .cls-2 {
        fill: #0f204c;
      }

      .cls-3 {
        fill: #00c7ce;
      }

      .cls-4 {
        fill: #008484;
      }

      .cls-5 {
        opacity: .75;
      }
    </style>
  </defs>
  <!-- Generator: Adobe Illustrator 28.7.1, SVG Export Plug-In . SVG Version: 1.2.0 Build 142)  -->
  <g>
    <g id="Layer_1">
      <g>
        <g>
          <path class="cls-3" d="M-103.4,23.39l-14.56,14.56c-1.41,1.41-3.69,1.41-5.1,0l-14.56-14.56c-1.41-1.41-1.41-3.69,0-5.1l7.6-7.6,2.97,2.97c.15-.54.42-1.03.83-1.44,1.24-1.24,3.26-1.25,4.51,0s1.24,3.27,0,4.51c-.41.41-.9.68-1.44.82l2.66,2.66,4.16-4.16-.08,1.19c-.04.65.2,1.3.66,1.76.89.89,2.35.89,3.24,0,.89-.89.89-2.34,0-3.24-.46-.46-1.1-.71-1.76-.67l-1.18.08,4.46-4.46,7.59,7.59c1.41,1.41,1.41,3.69,0,5.1Z"/>
          <path class="cls-2" d="M-110.35,30.35l-4.47-4.47.08,1.18c.04.66-.21,1.3-.67,1.76-.89.89-2.34.9-3.24,0s-.89-2.35,0-3.24c.46-.46,1.11-.7,1.76-.66l1.19.08-4.8-4.8-3.29,3.29c-.14-.55-.42-1.04-.82-1.44-1.24-1.24-3.27-1.24-4.51,0s-1.24,3.26,0,4.51c.4.4.9.68,1.44.83l-2.97,2.97.63.63,4.47-4.47-1.18.08c-.66.04-1.3-.21-1.76-.67-.89-.89-.9-2.34,0-3.24s2.35-.89,3.24,0c.46.46.7,1.11.66,1.76l-.08,1.19,4.16-4.16,2.66,2.66c-.54.14-1.04.42-1.44.82-1.24,1.24-1.24,3.27,0,4.51,1.24,1.24,3.26,1.24,4.51,0,.4-.4.68-.9.83-1.44l2.97,2.97.63-.63Z"/>
        </g>
        <path class="cls-2" d="M-112.51,17.45c-.89.89-2.35.89-3.24,0-.46-.46-.7-1.11-.66-1.76l.08-1.19-4.16,4.16-2.66-2.66c.54-.14,1.04-.42,1.44-.82,1.24-1.24,1.24-3.27,0-4.51-1.24-1.24-3.26-1.24-4.51,0-.41.41-.68.9-.83,1.44l-2.97-2.97,6.96-6.96c1.41-1.41,3.69-1.41,5.1,0l6.96,6.96-4.46,4.46,1.18-.08c.66-.04,1.3.21,1.76.67.89.89.9,2.34,0,3.24Z"/>
      </g>
      <g>
        <g>
          <g>
            <rect class="cls-3" x="-48.35" y="22.92" width="2.53" height="7.37" transform="translate(-32.6 -25.51) rotate(-45)"/>
            <rect class="cls-4" x="-42.69" y="25.28" width="4.42" height="15.87" rx="-16.93" ry="-16.93" transform="translate(-35.34 -18.9) rotate(-45)"/>
          </g>
          <g>
            <circle class="cls-4" cx="-58.43" cy="15.26" r="14.26"/>
            <path class="cls-3" d="M-50.39,7.22c4.44,4.44,4.44,11.64,0,16.08-4.44,4.44-11.64,4.44-16.08,0-4.44-4.44-4.44-11.64,0-16.08,4.44-4.44,11.64-4.44,16.08,0Z"/>
          </g>
        </g>
        <polygon class="cls-2" points="-66.95 10.4 -59.78 13.95 -44.17 1 -59.39 19.32 -66.95 10.4"/>
      </g>
      <g>
        <g>
          <polygon class="cls-3" points="19.15 16.79 1.45 16.79 19.15 36 36.85 16.79 19.15 16.79"/>
          <polygon class="cls-1" points="31.92 8.77 6.38 8.77 1.45 16.79 36.85 16.79 31.92 8.77"/>
          <polygon class="cls-3" points="10.64 16.79 14.89 8.77 10.64 8.77 6.38 8.77 10.64 16.79"/>
          <polygon class="cls-3" points="19.15 16.79 23.4 8.77 19.15 8.77 14.89 8.77 19.15 16.79"/>
          <polygon class="cls-3" points="27.66 16.79 31.92 8.77 27.66 8.77 23.4 8.77 27.66 16.79"/>
          <polygon class="cls-1" points="10.64 16.79 19.15 36 19.15 16.79 10.64 16.79"/>
          <g>
            <polygon class="cls-4" points="31.92 8.77 27.66 16.79 31.92 16.79 36.85 16.79 31.92 8.77"/>
            <polygon class="cls-4" points="27.66 16.79 19.15 36 36.85 16.79 27.66 16.79"/>
          </g>
        </g>
        <g>
          <polygon class="cls-2" points="6.14 5 7.02 8.13 10.15 9 7.02 9.87 6.14 13.01 5.27 9.87 2.14 9 5.27 8.13 6.14 5"/>
          <polygon class="cls-2" points="3.28 12.12 3.68 13.56 5.11 13.96 3.68 14.36 3.28 15.79 2.88 14.36 1.45 13.96 2.88 13.56 3.28 12.12"/>
          <polygon class="cls-2" points="37.19 14.45 37.7 16.28 39.54 16.79 37.7 17.31 37.19 19.14 36.68 17.31 34.84 16.79 36.68 16.28 37.19 14.45"/>
        </g>
      </g>
      <g>
        <g>
          <circle class="cls-4" cx="19.97" cy="80.17" r="17.39"/>
          <path class="cls-3" d="M19.97,94.59c-7.95,0-14.42-6.47-14.42-14.42s6.47-14.42,14.42-14.42,14.42,6.47,14.42,14.42-6.47,14.42-14.42,14.42ZM19.97,68.37c-6.51,0-11.8,5.29-11.8,11.8s5.29,11.8,11.8,11.8,11.8-5.29,11.8-11.8-5.29-11.8-11.8-11.8Z"/>
          <path class="cls-3" d="M19.97,89.3c-5.03,0-9.13-4.1-9.13-9.13s4.1-9.13,9.13-9.13,9.13,4.1,9.13,9.13-4.1,9.13-9.13,9.13ZM19.97,73.66c-3.59,0-6.51,2.92-6.51,6.51s2.92,6.51,6.51,6.51,6.51-2.92,6.51-6.51-2.92-6.51-6.51-6.51Z"/>
          <g class="cls-5">
            <path class="cls-2" d="M23.79,80.17c0,2.11-1.71,3.82-3.82,3.82s-3.82-1.71-3.82-3.82,1.71-3.82,3.82-3.82,3.82,1.71,3.82,3.82Z"/>
          </g>
        </g>
        <g>
          <path class="cls-2" d="M20.6,79.93c-.1,0-.2-.04-.28-.12-.15-.15-.15-.4,0-.56l12.04-12.04c.15-.15.4-.15.56,0s.15.4,0,.56l-12.04,12.04c-.08.08-.18.12-.28.12Z"/>
          <polygon class="cls-2" points="34.5 68.04 32.1 68.04 32.1 65.64 35.59 62.15 35.59 64.55 37.99 64.55 34.5 68.04"/>
        </g>
      </g>
    </g>
  </g>
</svg>